<svg version="1.1" id="crop_icon" xmlns="http://www.w3.org/2000/svg" xmlns:xlink="http://www.w3.org/1999/xlink" x="0px" y="0px"
	fill="#555555" width="30px" height="30px" viewBox="0 0 45 45" style="enable-background:new 0 0 45 45;" xml:space="preserve">
<g>
	<path d="M43.4,35.7H10.9c-0.9,0-1.6-0.7-1.6-1.6V1.6C9.3,0.7,10,0,10.9,0s1.6,0.7,1.6,1.6v30.9h30.9c0.9,0,1.6,0.7,1.6,1.6
		C45,35,44.3,35.7,43.4,35.7z"/>
	<path d="M34.1,45c-0.9,0-1.6-0.7-1.6-1.6V12.5H1.6c-0.9,0-1.6-0.7-1.6-1.6s0.7-1.6,1.6-1.6h32.5c0.9,0,1.6,0.7,1.6,1.6v32.5
		C35.7,44.3,35,45,34.1,45z"/>
</g>
</svg>
