<?xml version="1.0" encoding="utf-8"?>
<!-- Generator: Adobe Illustrator 21.0.2, SVG Export Plug-In . SVG Version: 6.00 Build 0)  -->
<svg version="1.1" id="download_icon" xmlns="http://www.w3.org/2000/svg" xmlns:xlink="http://www.w3.org/1999/xlink" x="0px" y="0px"
	fill="#888888" width="30px" height="30px" viewBox="0 0 45 45" style="enable-background:new 0 0 45 45;" xml:space="preserve">
<g>
	<path d="M22.5,36.7c-0.5,0-0.9-0.2-1.2-0.5L7.6,22.8c-0.7-0.7-0.7-1.8,0-2.5c0.7-0.7,1.8-0.7,2.5,0l10.7,10.4v-29
		c0-1,0.8-1.8,1.8-1.8c1,0,1.8,0.8,1.8,1.8v33.2c0,0.7-0.4,1.4-1.1,1.6C23,36.7,22.7,36.7,22.5,36.7z"/>
	<path d="M27.5,31.8c-0.5,0-0.9-0.2-1.3-0.5c-0.7-0.7-0.7-1.8,0-2.5l9.1-8.8c0.7-0.7,1.8-0.7,2.5,0c0.7,0.7,0.7,1.8,0,2.5l-9.1,8.8
		C28.4,31.7,28,31.8,27.5,31.8z"/>
	<path d="M43.2,45H1.8c-1,0-1.8-0.8-1.8-1.8V33.1c0-1,0.8-1.8,1.8-1.8s1.8,0.8,1.8,1.8v8.4h37.9v-8.4c0-1,0.8-1.8,1.8-1.8
		c1,0,1.8,0.8,1.8,1.8v10.1C45,44.2,44.2,45,43.2,45z"/>
</g>
</svg>
