<?xml version="1.0" encoding="utf-8"?>
<!-- Generator: Adobe Illustrator 21.0.2, SVG Export Plug-In . SVG Version: 6.00 Build 0)  -->
<svg version="1.1" id="effect_icon" xmlns="http://www.w3.org/2000/svg" xmlns:xlink="http://www.w3.org/1999/xlink" x="0px" y="0px"
	fill="#555555" width="30px" height="30px" viewBox="0 0 45 45" style="enable-background:new 0 0 45 45;" xml:space="preserve">
<g>
	<path d="M4.8,45c-1.3,0-2.5-0.5-3.4-1.4l0,0l0,0l0,0C0.5,42.7,0,41.5,0,40.2c0-1.3,0.5-2.5,1.4-3.4L18.2,20c0.9-0.9,2.1-1.4,3.4-1.4
		c1.3,0,2.5,0.5,3.4,1.4c0.9,0.9,1.4,2.1,1.4,3.4c0,1.3-0.5,2.5-1.4,3.4L8.2,43.6C7.3,44.5,6.1,45,4.8,45z M21.6,21.8
		c-0.4,0-0.8,0.2-1.1,0.5L3.7,39.1c-0.3,0.3-0.5,0.7-0.5,1.1c0,0.4,0.2,0.8,0.5,1.1l0,0c0.6,0.6,1.6,0.6,2.3,0l16.8-16.8
		c0.3-0.3,0.5-0.7,0.5-1.1c0-0.4-0.2-0.8-0.5-1.1C22.4,21.9,22,21.8,21.6,21.8z"/>
	<path d="M30.6,16c-0.4,0-0.8-0.2-1.1-0.5c-0.6-0.6-0.6-1.6,0-2.3l11-11c0.6-0.6,1.6-0.6,2.3,0c0.6,0.6,0.6,1.6,0,2.3l-11,11
		C31.4,15.9,31,16,30.6,16z"/>
	<path d="M22.4,12.3c-0.9,0-1.6-0.7-1.6-1.6V1.6c0-0.9,0.7-1.6,1.6-1.6C23.2,0,24,0.7,24,1.6v9.1C24,11.6,23.2,12.3,22.4,12.3z"/>
	<path d="M43.4,24.2h-9.1c-0.9,0-1.6-0.7-1.6-1.6c0-0.9,0.7-1.6,1.6-1.6h9.1c0.9,0,1.6,0.7,1.6,1.6C45,23.5,44.3,24.2,43.4,24.2z"/>
	<path d="M14.1,14.2c-0.4,0-0.8-0.2-1.1-0.5L5.7,6.4c-0.6-0.6-0.6-1.6,0-2.3c0.6-0.6,1.6-0.6,2.3,0l7.3,7.3c0.6,0.6,0.6,1.6,0,2.3
		C14.9,14,14.5,14.2,14.1,14.2z"/>
	<path d="M39.7,39.8c-0.4,0-0.8-0.2-1.1-0.5L31.3,32c-0.6-0.6-0.6-1.6,0-2.3c0.6-0.6,1.6-0.6,2.3,0l7.3,7.3c0.6,0.6,0.6,1.6,0,2.3
		C40.6,39.6,40.2,39.8,39.7,39.8z"/>
</g>
</svg>
