<?xml version="1.0" encoding="utf-8"?>
<!-- Generator: Adobe Illustrator 21.0.2, SVG Export Plug-In . SVG Version: 6.00 Build 0)  -->
<svg version="1.1" id="image_icon" xmlns="http://www.w3.org/2000/svg" xmlns:xlink="http://www.w3.org/1999/xlink" x="0px" y="0px"
	fill="#888888" width="34px" height="28.3px" viewBox="0 0 53 45" style="enable-background:new 0 0 53 45;" xml:space="preserve">
<g>
	<path d="M41,45H6.1C2.8,45,0,42.3,0,38.9v-1.3c0-0.5,0.2-1,0.6-1.3l14.5-12.7c0.6-0.5,1.5-0.6,2.2-0.1l8.5,5.9l17.8-17.7
		c-0.1-1.3-1.2-2.3-2.6-2.3H6.1c-1.4,0-2.6,1.2-2.6,2.6v15.9c0,1-0.8,1.8-1.8,1.8S0,28.8,0,27.8V11.9c0-3.4,2.8-6.1,6.1-6.1H41
		c3.4,0,6.1,2.7,6.1,6.1v27C47.2,42.3,44.4,45,41,45z M3.5,38.4v0.5c0,1.4,1.2,2.6,2.6,2.6H41c1.4,0,2.6-1.2,2.6-2.6V16.6L27.3,32.9
		c-0.6,0.6-1.6,0.7-2.3,0.2l-8.6-6L3.5,38.4z"/>
	<path d="M11.2,21.6c-2.8,0-5.2-2.3-5.2-5.1s2.3-5.1,5.2-5.1s5.2,2.3,5.2,5.1S14.1,21.6,11.2,21.6z M11.2,14.4
		c-1.2,0-2.1,0.9-2.1,2.1s1,2.1,2.1,2.1s2.1-0.9,2.1-2.1S12.4,14.4,11.2,14.4z"/>
	<path d="M51.2,34.9c-1,0-1.8-0.8-1.8-1.8V9.5c0-3-3.2-6-5-6H12c-1,0-1.8-0.8-1.8-1.8S11,0,12,0h32.5C48.6,0,53,4.9,53,9.5v23.6
		C53,34.1,52.2,34.9,51.2,34.9z"/>
</g>
</svg>
