<svg version="1.1" id="page_icon" xmlns="http://www.w3.org/2000/svg" xmlns:xlink="http://www.w3.org/1999/xlink" x="0px" y="0px"
	fill="#888888" width="30px" height="30px" viewBox="0 0 45 45" style="enable-background:new 0 0 45 45;" xml:space="preserve">
<g>
	<path d="M40.6,45H4.4c-0.9,0-1.6-0.7-1.6-1.6V1.6C2.8,0.7,3.5,0,4.4,0h25.1c0.4,0,0.8,0.2,1.1,0.5l11.1,11.1
		c0.3,0.3,0.5,0.7,0.5,1.1v30.6C42.2,44.3,41.5,45,40.6,45z M6,41.8h32.9V13.4L28.8,3.2H6V41.8z"/>
	<path d="M40.6,13.9H29.4c-0.6,0-1.2-0.5-1.2-1.2V1.6c0-0.6,0.5-1.2,1.2-1.2c0.6,0,1.2,0.5,1.2,1.2v10h10c0.6,0,1.2,0.5,1.2,1.2
		C41.7,13.4,41.2,13.9,40.6,13.9z"/>
</g>
</svg>
