<svg version="1.1" id="pencil_icon" xmlns="http://www.w3.org/2000/svg" xmlns:xlink="http://www.w3.org/1999/xlink" x="0px" y="0px"
	fill="#555555" width="30px" height="30px" viewBox="0 0 45 45" style="enable-background:new 0 0 45 45;" xml:space="preserve">
<g>
	<path d="M15.5,40.4C15.5,40.4,15.5,40.4,15.5,40.4c-0.4,0-0.9-0.2-1.2-0.5l-9.2-9.3c-0.6-0.6-0.6-1.7,0-2.3L32.9,0.5
		c0.6-0.6,1.7-0.6,2.3,0l9.3,9.3c0.6,0.6,0.6,1.7,0,2.3L16.7,39.9C16.4,40.2,15.9,40.4,15.5,40.4z M8.6,29.4l6.9,7l25.6-25.6l-7-7
		L8.6,29.4z"/>
	<path d="M1.6,45c-0.4,0-0.8-0.2-1.1-0.5c-0.4-0.4-0.6-1.1-0.4-1.7l4.6-13.9c0.2-0.5,0.6-0.9,1.2-1.1c0.5-0.1,1.1,0,1.5,0.4l9.3,9.3
		c0.4,0.4,0.6,1,0.4,1.5c-0.1,0.5-0.5,1-1.1,1.2L2.1,44.9C2,45,1.8,45,1.6,45z M7,32.5l-2.8,8.3l8.3-2.8L7,32.5z"/>
	<path d="M5.2,42.5c-0.3,0-0.6-0.1-0.9-0.4l-1.4-1.4c-0.5-0.5-0.5-1.3,0-1.7c0.5-0.5,1.3-0.5,1.7,0L6,40.4c0.5,0.5,0.5,1.3,0,1.7
		C5.8,42.4,5.5,42.5,5.2,42.5z"/>
	<path d="M38.7,17.2c-0.4,0-0.8-0.2-1.1-0.5l-9.3-9.3c-0.6-0.6-0.6-1.7,0-2.3c0.6-0.6,1.7-0.6,2.3,0l9.3,9.3
		c0.6,0.6,0.6,1.7,0,2.3C39.5,17.1,39.1,17.2,38.7,17.2z"/>
</g>
</svg>
