<svg version="1.1" id="Layer_1" xmlns="http://www.w3.org/2000/svg" xmlns:xlink="http://www.w3.org/1999/xlink" x="0px" y="0px"
	fill="#888888" width="27px" height="27px" viewBox="0 0 45 45" style="enable-background:new 0 0 45 45;" xml:space="preserve">
<g>
	<path d="M38.9,24.2c0.6,0,1.2-0.3,1.5-0.9l4.3-7.7c0.5-0.8,0.2-1.9-0.7-2.4c-0.8-0.5-1.9-0.2-2.4,0.7L40,17.2
		c-2.3-8.6-10.3-15-19.6-15c-7.2,0-14,3.9-17.6,10.2c-0.5,0.8-0.2,1.9,0.6,2.4c0.8,0.5,1.9,0.2,2.4-0.6c3-5.2,8.6-8.4,14.6-8.4
		c9.3,0,16.9,7.6,16.9,16.9c0,0.8,0.5,1.5,1.3,1.7C38.6,24.2,38.8,24.2,38.9,24.2z"/>
	<path d="M38.9,24.2c0.5,0,1.1-0.3,1.4-0.7c0.6-0.8,0.4-1.9-0.4-2.4l-7-5c-0.8-0.6-1.9-0.4-2.4,0.4s-0.4,1.9,0.4,2.4l7,5
		C38.2,24.1,38.6,24.2,38.9,24.2z"/>
	<path d="M35.7,35.8c0.6-0.7,0.5-1.8-0.2-2.4c-0.7-0.6-1.8-0.5-2.4,0.2c-6.1,7-16.8,7.8-23.8,1.7c-7-6.1-7.8-16.8-1.7-23.8
		c6.1-7,16.8-7.8,23.8-1.7c0.7,0.6,1.8,0.5,2.4-0.2c0.6-0.7,0.5-1.8-0.2-2.4C25.2-0.2,12.3,0.7,5,9.2c-7.3,8.5-6.4,21.3,2,28.7
		S28.3,44.3,35.7,35.8z"/>
</g>
</svg>
