<?xml version="1.0" encoding="utf-8"?>
<!-- Generator: Adobe Illustrator 21.0.2, SVG Export Plug-In . SVG Version: 6.00 Build 0)  -->
<svg version="1.1" id="rotation_icon" xmlns="http://www.w3.org/2000/svg" xmlns:xlink="http://www.w3.org/1999/xlink" x="0px" y="0px"
	fill="#555555" width="32px" height="32px" viewBox="0 0 45 45" style="enable-background:new 0 0 45 45;" xml:space="preserve">
<g>
	<path d="M22.5,41.1c-6.6,0-12.8-3.6-16.1-9.3C5.9,31,6.2,29.9,7,29.4c0.8-0.5,1.9-0.2,2.4,0.6
		c2.7,4.7,7.7,7.6,13.1,7.6c8.3,0,15.1-6.8,15.1-15.1c0-0.8,0.5-1.5,1.3-1.7c0.8-0.2,1.6,0.1,1.9,0.8l3.9,6.9
		c0.5,0.8,0.2,1.9-0.7,2.4c-0.8,0.5-1.9,0.2-2.4-0.7l-1.4-2.5C38.1,35.4,30.9,41.1,22.5,41.1z"/>
	<path d="M33,28.7c-0.5,0-1.1-0.3-1.4-0.7c-0.6-0.8-0.4-1.9,0.4-2.4l6.4-4.5c0.8-0.6,1.9-0.4,2.4,0.4
		c0.6,0.8,0.4,1.9-0.4,2.4L34,28.4C33.7,28.6,33.3,28.7,33,28.7z"/>
	<path d="M5.7,24.2c-0.6,0-1.2-0.3-1.5-0.9l-3.9-6.9c-0.5-0.8-0.2-1.9,0.7-2.4c0.8-0.5,1.9-0.2,2.4,0.7l1.4,2.5
		C6.9,9.6,14.1,3.9,22.5,3.9c6.6,0,12.8,3.6,16.1,9.3c0.5,0.8,0.2,1.9-0.6,2.4c-0.8,0.5-1.9,0.2-2.4-0.6c-2.7-4.7-7.7-7.6-13.1-7.6
		c-8.3,0-15.1,6.8-15.1,15.1c0,0.8-0.5,1.5-1.3,1.7C6,24.2,5.8,24.2,5.7,24.2z"/>
	<path d="M5.7,24.2c-0.5,0-1.1-0.3-1.4-0.7c-0.6-0.8-0.4-1.9,0.4-2.4l6.4-4.5c0.8-0.6,1.9-0.4,2.4,0.4
		c0.6,0.8,0.4,1.9-0.4,2.4l-6.4,4.5C6.4,24.1,6,24.2,5.7,24.2z"/>
</g>
</svg>
