<svg version="1.1" id="Layer_1" xmlns="http://www.w3.org/2000/svg" xmlns:xlink="http://www.w3.org/1999/xlink" x="0px" y="0px"
	fill="#888888" width="27px" height="27px" viewBox="0 0 45 45" style="enable-background:new 0 0 45 45;" xml:space="preserve">
<g>
	<path d="M6.1,24.2c-0.6,0-1.2-0.3-1.5-0.9l-4.3-7.7c-0.5-0.8-0.2-1.9,0.7-2.4c0.8-0.5,1.9-0.2,2.4,0.7L5,17.2
		c2.3-8.6,10.3-15,19.6-15c7.2,0,14,3.9,17.6,10.2c0.5,0.8,0.2,1.9-0.6,2.4c-0.8,0.5-1.9,0.2-2.4-0.6c-3-5.2-8.6-8.4-14.6-8.4
		c-9.3,0-16.9,7.6-16.9,16.9c0,0.8-0.5,1.5-1.3,1.7C6.4,24.2,6.2,24.2,6.1,24.2z"/>
	<path d="M6.1,24.2c-0.5,0-1.1-0.3-1.4-0.7c-0.6-0.8-0.4-1.9,0.4-2.4l7-5c0.8-0.6,1.9-0.4,2.4,0.4c0.6,0.8,0.4,1.9-0.4,2.4l-7,5
		C6.8,24.1,6.4,24.2,6.1,24.2z"/>
	<path d="M24.7,42.8c-1,0-1.7-0.8-1.7-1.7s0.8-1.7,1.7-1.7c9.3,0,16.9-7.6,16.9-16.9c0-9.3-7.6-16.9-16.9-16.9
		c-9.3,0-16.9,7.6-16.9,16.9c0,1-0.8,1.7-1.7,1.7s-1.7-0.8-1.7-1.7c0-11.2,9.1-20.3,20.3-20.3C35.9,2.2,45,11.3,45,22.5
		S35.9,42.8,24.7,42.8z"/>
</g>
</svg>
